<svg xmlns="http://www.w3.org/2000/svg" viewBox="0 0 420 580" role="img" aria-labelledby="t d"><title id="t">Carta de fuego coleccionable</title><desc id="d">Ilustración editorial original inspirada en cartas coleccionables, sin arte oficial.</desc><defs><linearGradient id="g" y2="1"><stop stop-color="#ff725e"/><stop offset="1" stop-color="#8e163c"/></linearGradient></defs><rect x="24" y="18" width="372" height="544" rx="30" fill="#321536"/><rect x="39" y="34" width="342" height="514" rx="22" fill="url(#g)"/><path d="M214 90c30 70-34 85 5 130 28-34 52-52 50-90 58 70 83 133 44 207-29 54-83 86-135 71-66-19-97-94-62-153 22-37 63-59 98-165z" fill="#ffd85a"/><path d="M218 227c9 40-35 59-13 93 16-19 29-28 34-49 26 32 35 63 15 93-19 29-63 34-87 8-29-33-13-84 51-145z" fill="#fff"/><text x="62" y="502" font-family="system-ui,sans-serif" font-weight="900" font-size="34" fill="#fff">LLAMA EX</text><text x="305" y="88" font-family="system-ui,sans-serif" font-weight="900" font-size="24" fill="#fff">HP 330</text></svg>

